<svg width="545" height="86" viewBox="0 0 545 86" fill="none" xmlns="http://www.w3.org/2000/svg">
<path d="M0.2 2.5H18.4V84H0.2V2.5ZM97.4172 84H76.3172L60.5172 58.3H46.0172V84H27.8172V2.5H60.6172C81.3172 2.5 93.4172 13.5 93.4172 30.4C93.4172 41.6 88.1172 50.2 78.5172 54.7L97.4172 84ZM46.0172 18.6V42.2H59.8172C69.4172 42.2 75.2172 38.1 75.2172 30.4C75.2172 22.7 69.4172 18.6 59.8172 18.6H46.0172ZM140.366 86C115.066 86 96.3656 67.9 96.3656 43.2C96.3656 18.5 115.066 0.399995 140.366 0.399995C165.666 0.399995 184.366 18.5 184.366 43.2C184.366 67.9 165.666 86 140.366 86ZM140.366 69.6C155.166 69.6 166.166 58.5 166.166 43.2C166.166 27.8 155.166 16.8 140.366 16.8C125.566 16.8 114.566 27.8 114.566 43.2C114.566 58.5 125.566 69.6 140.366 69.6ZM190.18 84V2.5H205.38L246.08 51.5V1.5H264.28V83H249.08L208.38 34V84H190.18ZM296.684 84V2.5H311.184L339.284 48.1L367.384 2.5H381.884V84H363.684V39.3L344.784 70.6H333.784L314.884 39.3V84H296.684ZM446.894 84L441.194 68.2H409.594L403.894 84H385.094L416.694 2.5H435.594L467.194 84H446.894ZM415.194 52.4H435.594L425.394 24L415.194 52.4ZM470.376 84V2.5H485.576L526.276 51.5V1.5H544.476V83H529.276L488.576 34V84H470.376Z" fill="#DDDDDD"/>
</svg>
