<svg width="545" height="98" viewBox="0 0 545 98" fill="none" xmlns="http://www.w3.org/2000/svg">
<path d="M0.640001 97.8H-0.359999V98.8H0.640001V97.8ZM0.640001 -2.86102e-06V-1H-0.359999V-2.86102e-06H0.640001ZM18.04 -2.86102e-06L18.8913 -0.524621L18.5984 -1H18.04V-2.86102e-06ZM51.76 54.72L50.9087 55.2446L51.76 56.6261L52.6113 55.2446L51.76 54.72ZM85.48 -2.86102e-06V-1H84.9216L84.6287 -0.524621L85.48 -2.86102e-06ZM102.88 -2.86102e-06H103.88V-1H102.88V-2.86102e-06ZM102.88 97.8V98.8H103.88V97.8H102.88ZM81.04 97.8H80.04V98.8H81.04V97.8ZM81.04 44.16H82.04V40.5693L80.184 43.6431L81.04 44.16ZM58.36 81.72V82.72H58.9243L59.216 82.2369L58.36 81.72ZM45.16 81.72L44.304 82.2369L44.5957 82.72H45.16V81.72ZM22.48 44.16L23.336 43.6431L21.48 40.5693V44.16H22.48ZM22.48 97.8V98.8H23.48V97.8H22.48ZM1.64 97.8V-2.86102e-06H-0.359999V97.8H1.64ZM0.640001 0.999997H18.04V-1H0.640001V0.999997ZM17.1887 0.524615L50.9087 55.2446L52.6113 54.1954L18.8913 -0.524621L17.1887 0.524615ZM52.6113 55.2446L86.3313 0.524615L84.6287 -0.524621L50.9087 54.1954L52.6113 55.2446ZM85.48 0.999997H102.88V-1H85.48V0.999997ZM101.88 -2.86102e-06V97.8H103.88V-2.86102e-06H101.88ZM102.88 96.8H81.04V98.8H102.88V96.8ZM82.04 97.8V44.16H80.04V97.8H82.04ZM80.184 43.6431L57.504 81.2031L59.216 82.2369L81.896 44.6769L80.184 43.6431ZM58.36 80.72H45.16V82.72H58.36V80.72ZM46.016 81.2031L23.336 43.6431L21.624 44.6769L44.304 82.2369L46.016 81.2031ZM21.48 44.16V97.8H23.48V44.16H21.48ZM22.48 96.8H0.640001V98.8H22.48V96.8ZM180.891 97.8L179.951 98.1394L180.189 98.8H180.891V97.8ZM174.051 78.84L174.992 78.5006L174.754 77.84H174.051V78.84ZM136.131 78.84V77.84H135.429L135.191 78.5006L136.131 78.84ZM129.291 97.8V98.8H129.994L130.232 98.1394L129.291 97.8ZM106.731 97.8L105.799 97.4385L105.271 98.8H106.731V97.8ZM144.651 -2.86102e-06V-1H143.966L143.719 -0.36151L144.651 -2.86102e-06ZM167.331 -2.86102e-06L168.264 -0.36151L168.016 -1H167.331V-2.86102e-06ZM205.251 97.8V98.8H206.712L206.184 97.4385L205.251 97.8ZM142.851 59.88L141.91 59.542L141.43 60.88H142.851V59.88ZM167.331 59.88V60.88H168.753L168.272 59.542L167.331 59.88ZM155.091 25.8L156.032 25.462L155.091 22.8415L154.15 25.462L155.091 25.8ZM181.832 97.4606L174.992 78.5006L173.111 79.1794L179.951 98.1394L181.832 97.4606ZM174.051 77.84H136.131V79.84H174.051V77.84ZM135.191 78.5006L128.351 97.4606L130.232 98.1394L137.072 79.1794L135.191 78.5006ZM129.291 96.8H106.731V98.8H129.291V96.8ZM107.664 98.1615L145.584 0.361505L143.719 -0.36151L105.799 97.4385L107.664 98.1615ZM144.651 0.999997H167.331V-1H144.651V0.999997ZM166.399 0.361505L204.319 98.1615L206.184 97.4385L168.264 -0.36151L166.399 0.361505ZM205.251 96.8H180.891V98.8H205.251V96.8ZM142.851 60.88H167.331V58.88H142.851V60.88ZM168.272 59.542L156.032 25.462L154.15 26.138L166.39 60.218L168.272 59.542ZM154.15 25.462L141.91 59.542L143.792 60.218L156.032 26.138L154.15 25.462ZM292.59 97.8V98.8H294.425L293.43 97.2579L292.59 97.8ZM267.27 97.8L266.418 98.3237L266.711 98.8H267.27V97.8ZM248.31 66.96L249.162 66.4363L248.869 65.96H248.31V66.96ZM230.91 66.96V65.96H229.91V66.96H230.91ZM230.91 97.8V98.8H231.91V97.8H230.91ZM209.07 97.8H208.07V98.8H209.07V97.8ZM209.07 -2.86102e-06V-1H208.07V-2.86102e-06H209.07ZM269.91 62.64L269.485 61.7345L268.449 62.2203L269.069 63.1821L269.91 62.64ZM230.91 19.32V18.32H229.91V19.32H230.91ZM230.91 47.64H229.91V48.64H230.91V47.64ZM292.59 96.8H267.27V98.8H292.59V96.8ZM268.122 97.2763L249.162 66.4363L247.458 67.4837L266.418 98.3237L268.122 97.2763ZM248.31 65.96H230.91V67.96H248.31V65.96ZM229.91 66.96V97.8H231.91V66.96H229.91ZM230.91 96.8H209.07V98.8H230.91V96.8ZM210.07 97.8V-2.86102e-06H208.07V97.8H210.07ZM209.07 0.999997H248.43V-1H209.07V0.999997ZM248.43 0.999997C260.68 0.999997 270.264 4.25438 276.77 9.8908C283.26 15.5132 286.79 23.5937 286.79 33.48H288.79C288.79 23.0863 285.06 14.4268 278.079 8.3792C271.115 2.34561 261.019 -1 248.43 -1V0.999997ZM286.79 33.48C286.79 46.557 280.632 56.5095 269.485 61.7345L270.334 63.5455C282.227 57.9705 288.79 47.283 288.79 33.48H286.79ZM269.069 63.1821L291.749 98.3421L293.43 97.2579L270.75 62.0979L269.069 63.1821ZM229.91 19.32V47.64H231.91V19.32H229.91ZM230.91 48.64H247.47V46.64H230.91V48.64ZM247.47 48.64C253.352 48.64 258.214 47.3867 261.63 44.825C265.087 42.2319 266.95 38.3813 266.95 33.48H264.95C264.95 37.8187 263.332 41.0481 260.43 43.225C257.485 45.4333 253.107 46.64 247.47 46.64V48.64ZM266.95 33.48C266.95 28.5787 265.087 24.7281 261.63 22.135C258.214 19.5733 253.352 18.32 247.47 18.32V20.32C253.107 20.32 257.485 21.5267 260.43 23.735C263.332 25.9119 264.95 29.1413 264.95 33.48H266.95ZM247.47 18.32H230.91V20.32H247.47V18.32ZM364.916 -2.86102e-06V-1H364.219L363.978 -0.345636L364.916 -2.86102e-06ZM387.836 -2.86102e-06L388.766 0.367449L389.306 -1H387.836V-2.86102e-06ZM349.196 97.8V98.8H349.876L350.126 98.1675L349.196 97.8ZM325.676 97.8L324.746 98.1675L324.996 98.8H325.676V97.8ZM287.036 -2.86102e-06V-1H285.566L286.106 0.367449L287.036 -2.86102e-06ZM311.756 -2.86102e-06L312.694 -0.347012L312.452 -1H311.756V-2.86102e-06ZM338.396 72L337.458 72.347L338.398 74.8875L339.334 72.3456L338.396 72ZM364.916 0.999997H387.836V-1H364.916V0.999997ZM386.906 -0.367455L348.266 97.4325L350.126 98.1675L388.766 0.367449L386.906 -0.367455ZM349.196 96.8H325.676V98.8H349.196V96.8ZM326.606 97.4325L287.966 -0.367455L286.106 0.367449L324.746 98.1675L326.606 97.4325ZM287.036 0.999997H311.756V-1H287.036V0.999997ZM310.818 0.347006L337.458 72.347L339.334 71.653L312.694 -0.347012L310.818 0.347006ZM339.334 72.3456L365.854 0.34563L363.978 -0.345636L337.458 71.6544L339.334 72.3456ZM391.718 97.8H390.718V98.8H391.718V97.8ZM391.718 -2.86102e-06V-1H390.718V-2.86102e-06H391.718ZM464.438 -2.86102e-06H465.438V-1H464.438V-2.86102e-06ZM464.438 18.96V19.96H465.438V18.96H464.438ZM413.558 18.96V17.96H412.558V18.96H413.558ZM413.558 38.88H412.558V39.88H413.558V38.88ZM460.238 38.88H461.238V37.88H460.238V38.88ZM460.238 57.84V58.84H461.238V57.84H460.238ZM413.558 57.84V56.84H412.558V57.84H413.558ZM413.558 78.84H412.558V79.84H413.558V78.84ZM465.518 78.84H466.518V77.84H465.518V78.84ZM465.518 97.8V98.8H466.518V97.8H465.518ZM392.718 97.8V-2.86102e-06H390.718V97.8H392.718ZM391.718 0.999997H464.438V-1H391.718V0.999997ZM463.438 -2.86102e-06V18.96H465.438V-2.86102e-06H463.438ZM464.438 17.96H413.558V19.96H464.438V17.96ZM412.558 18.96V38.88H414.558V18.96H412.558ZM413.558 39.88H460.238V37.88H413.558V39.88ZM459.238 38.88V57.84H461.238V38.88H459.238ZM460.238 56.84H413.558V58.84H460.238V56.84ZM412.558 57.84V78.84H414.558V57.84H412.558ZM413.558 79.84H465.518V77.84H413.558V79.84ZM464.518 78.84V97.8H466.518V78.84H464.518ZM465.518 96.8H391.718V98.8H465.518V96.8ZM474.195 -2.86102e-06V-1H473.195V-2.86102e-06H474.195ZM496.035 -2.86102e-06H497.035V-1H496.035V-2.86102e-06ZM496.035 78.48H495.035V79.48H496.035V78.48ZM544.875 78.48H545.875V77.48H544.875V78.48ZM544.875 97.8V98.8H545.875V97.8H544.875ZM474.195 97.8H473.195V98.8H474.195V97.8ZM474.195 0.999997H496.035V-1H474.195V0.999997ZM495.035 -2.86102e-06V78.48H497.035V-2.86102e-06H495.035ZM496.035 79.48H544.875V77.48H496.035V79.48ZM543.875 78.48V97.8H545.875V78.48H543.875ZM544.875 96.8H474.195V98.8H544.875V96.8ZM475.195 97.8V-2.86102e-06H473.195V97.8H475.195Z" fill="#333333"/>
</svg>
